<svg id="Layer_3" data-name="Layer 3" xmlns="http://www.w3.org/2000/svg" viewBox="0 0 496.87 178"><defs><style>.cls-1{fill:#fff;}.cls-2{fill:#1b1c20;}</style></defs><path class="cls-1" d="M493.13,280.09c-3.18-15,7.42-42,10.64-46.5l2.79-2.79-1.11-4.08c-2.31-8.46-19-9.46-19.19-9.46a12.91,12.91,0,0,0-5.36,1,37.38,37.38,0,0,0-6,3.2c-2.66-2.54-7.06-4-11.84-4-5.46,0-10.1,2.06-12.78,5.68-.31.38-.6.78-.91,1.17a10.64,10.64,0,0,0-4.35-5.18c-1.54-1-4.35-2.24-10.89-2.24a65.42,65.42,0,0,0-12.61,1.33l-.87-1.24-1.91-.82a15,15,0,0,0-6-.81h-.34l2.68-4.48-4.61-4a17.12,17.12,0,0,0-11.39-4.65,17.92,17.92,0,0,0-11.42,4.51l-.75.62-.56.78c-1.65,2.31-3.19,4.79-4.65,7.28L376.14,213l-3.6,6.06a32.27,32.27,0,0,0-9.83-1.87,14,14,0,0,0-5.67,1.09,37.38,37.38,0,0,0-6,3.2c-2.66-2.54-7.06-4-11.83-4s-9.14,1.68-11.9,4.64a10.79,10.79,0,0,0-3.15-3c-1.54-1-4.36-2.24-10.9-2.24-.58,0-14.38,0-19.94,4.29l-.39.3-.35.34a86.48,86.48,0,0,0-12,15.85c6.53-17.4,14.64-33.45,17.64-37.62l10.11-6.22-11.49-5.92a19.67,19.67,0,0,0-9-2.36A15.26,15.26,0,0,0,275.24,192c-3.9,4.76-10.15,15.74-15.36,25.68-6,.42-16.28,1.71-21.41,5.77a41.5,41.5,0,0,0-6.33,6.46l-.88-3.23c-2.31-8.46-19-9.46-19.19-9.46a12.91,12.91,0,0,0-5.36,1,37.38,37.38,0,0,0-6,3.2c-2.66-2.54-7.06-4-11.84-4a17.74,17.74,0,0,0-8.63,2.08c2.85-5.47,5.25-9.11,6.7-10.24l4.49-2.36-.83-5.18c-1.12-6.9-9-15.31-14.7-16h0a17.59,17.59,0,0,0-2-.1c-6.26,0-16.11,2.51-20.95,4.12-9.51,3.33-21.2,5.09-33.83,5.09-29.23,0-55.65-9.6-57.69-21l-1.33-7.4-7.35,1.55c-11.55,2.43-35.8,12.53-37,28.21l-.27,3.46,2.52,2.38c18.66,17.71,59.2,19.62,75.77,19.62a213.29,213.29,0,0,0,30.59-2.1c-32.56,39-50.44,72.69-53.93,83.52l-1,3.18,1.74,2.85A25.83,25.83,0,0,0,93.61,322a23,23,0,0,0,14.08-4.53l2.49-2,.26-3.15c0-.47.08-.93.12-1.37l.74-2.88c2.37-9.22,5.83-15.7,9.81-20.43-2.73,11.3-3.74,21.95-.24,27.62l1.32,2.13,2.34.87a23.48,23.48,0,0,0,8.25,1.36A39,39,0,0,0,154,313c14.78-2.8,34.61-4.46,53.46-4.46,17,0,41.23,1.29,60.47,7.41,16.3,5.2,24.75,12.45,25.13,21.57l.28,6.77,6.77.22,1.06,0h0c17.21,0,39.38-13.88,46.25-25.37,3.93-6.58,2.62-11.51,1.22-13.71a19.41,19.41,0,0,0-1.27-1.71c-4.9-5.54,8.81.79,11.36,2.15.58.31,2.23,1.41,2.23,1.41A25,25,0,0,0,374.55,311c7.68,0,16.13-3.2,21.07-7.68l.23.31.18.22c2,2.29,4.87,3.44,8.65,3.44h0c8.23,0,22.54-5.67,29-15.05l2.07,1.55,3.38-.87c6.17-1.57,11.65-3,17.47-6.26a29.91,29.91,0,0,0,3.29,14.62l.9,1.63,1.58,1A25,25,0,0,0,476,307.68c9.24,0,19.62-4.63,23.62-10.55l4.46-6.57-6.93-3.88C496.37,286.27,494.18,285.05,493.13,280.09Z" transform="translate(-9.69 -166.5)"/><path class="cls-2" d="M23.08,196.81c.76-10.05,19.64-19.19,31.21-21.62,4.27,23.75,64.56,34.26,101.11,21.47,5-1.68,15.23-4.11,19.79-3.66,1.22,0,7.46,5.18,8.23,9.9-6.09,3.2-17.82,28-25.59,53.29,7.31-2.58,14.32-6.24,20.41-12.48a4.92,4.92,0,0,1,2.59,2.13c-6.55,9.14-15.08,12.94-24.67,16.44-4.11,13.86-6.39,26.65-5.63,35.64,61.82-9.14,169.17-11.58,191.7,11,4.42,8.22-23,28.93-41.87,28.32C298.68,296.85,195.9,297.15,151,306.14c-6.24,5-17.36,7.76-23.9,5.33-3.2-5.18.3-22.69,7.15-41.72-12.63,5.33-24.36,14.61-30,36.54h-.31a34.39,34.39,0,0,0-.76,5.48c-5.78,4.57-18.88,4.87-25.73-6.39,4.11-12.79,27.71-55.12,69-99.74-.61.61-1.38,1.07-.92.92C123.12,217.52,46.83,219.35,23.08,196.81Zm94.25,70.8c6.55-2.89,13.25-4.41,20-6.09,9.29-24.66,22.53-51.16,32.74-61.36,1.37-1.37-8.68.15-10.05,1.07A295.61,295.61,0,0,0,117.33,267.61Z" transform="translate(-9.69 -166.5)"/><path class="cls-2" d="M181.89,278.43c-5.94,4.11-11,5.48-18.73,7.46-7.92-5.94,2.44-38.37,18.73-58.32,2.89-4.11,11.42-3.2,13.86-.76-2.29,2.28-7.47,11.87-11.42,20.71,7.61-9.75,17.35-19.34,25.27-22.54,3.5-1.68,14.16,2,14.62,3.65-4.11,4.11-24.21,53.6-4.87,64.41-3.2,4.72-17.36,11-27.26,4.72-9.9-17.81,12.94-60.14,20.1-67.91C197,236.7,185.54,260.76,181.89,278.43Z" transform="translate(-9.69 -166.5)"/><path class="cls-2" d="M244.77,297.76c-3.2-7.15-.91-20.86,1.83-30.91l-5.79,12.49c-7.31,5.33-11.42,6.24-19.64,6.24-11-8.52,10.81-47.81,21.77-56.34,3.66-2.89,14.62-4.41,21.47-4.41,6.86-13.4,13.4-24.52,16.6-28.32,2.9-4.12,7.46-4.73,12.49-2.14-4,2.44-46.75,87.25-21.47,98.67C268.83,297.76,254.67,304,244.77,297.76Zm-7.46-26.34c.46,2,4-3.2,8.53-11.11,5.78-9.9,11.11-20.1,15.83-30.31-3.19-1.21-6.7-1.06-8.37.61C244.77,240.05,235.33,260.15,237.31,271.42Zm56.19-77.05" transform="translate(-9.69 -166.5)"/><path class="cls-2" d="M297.76,227c3.2-2.44,19-4,22.53-1.68,4.27,2.59,2.14,11.58-25.12,29.54-3.2,14.93-.91,27.56,12.49,32-5.33,9.9-24.21,15.53-27,12.33C264.41,278.58,283.29,241.42,297.76,227Zm-1.37,23c9-7.76,21.31-21.62,9.59-21.16C301.26,234.88,299.28,240.82,296.39,250Z" transform="translate(-9.69 -166.5)"/><path class="cls-2" d="M410.25,231.22c-1.06-.45-5.63-.91-14-.91-10.5,22.69-19.79,52.53-4.11,66.08-3.2,4.72-17.36,11-27.26,4.72-6.54-20.25,4.73-48.87,16.45-70.19l-5.63.45c1.23-5.67,1.15-5.26,3.45-9.15a21.51,21.51,0,0,0,6.44,1.08,117.85,117.85,0,0,1,6.7-11c4.27-3.5,8.68-4.11,13.4,0-1.82,3-3.8,6.7-6.09,10.81,7.92-.45,15.23-.76,16.29-.3C417,224.37,411.47,230.77,410.25,231.22Z" transform="translate(-9.69 -166.5)"/><path class="cls-2" d="M418.62,227c3.2-2.44,19-4,22.54-1.68,4.26,2.59,2.13,11.58-25.13,29.54-3.19,14.93-.91,27.56,12.49,32-5.33,9.9-24.21,15.53-26.95,12.33C385.27,278.58,404.16,241.42,418.62,227Zm-1.37,23c9-7.76,21.32-21.62,9.59-21.16C422.12,234.88,420.14,240.82,417.25,250Z" transform="translate(-9.69 -166.5)"/><path class="cls-2" d="M456.08,278.43c-5.94,4.11-11,5.48-18.73,7.46-7.92-5.94,2.44-38.37,18.73-58.32,2.89-4.11,11.42-3.2,13.86-.76-2.29,2.28-7.47,11.87-11.43,20.71,7.62-9.75,17.36-19.34,25.28-22.54,3.5-1.68,14.16,2,14.62,3.65-4.11,4.11-24.21,53.6-4.87,64.41-3.2,4.72-17.36,11-27.26,4.72-9.9-17.81,12.94-60.14,20.1-67.91C471.15,236.7,459.73,260.76,456.08,278.43Z" transform="translate(-9.69 -166.5)"/><path class="cls-2" d="M370.19,236.86a96.73,96.73,0,0,0,3.25-9.26c-1.19-1.29-10-4.3-13.5-2.62-7.92,3.2-17.67,12.79-25.28,22.54,4-8.84,9.14-18.43,11.42-20.71-2.44-2.44-11-3.35-13.86.76-16.29,20-26.64,52.38-18.73,58.32,7.77-2,12.8-3.35,18.73-7.46,3.66-17.67,15.08-41.73,30.3-48.58a64.78,64.78,0,0,0-6.9,10.25C357.73,240.91,364.2,241.3,370.19,236.86Z" transform="translate(-9.69 -166.5)"/><path class="cls-1" d="M37.93,232.05c-.24-.18-1.84-.89-4.5-.24C28.17,238,18.36,257.59,19.06,266c.24,2.07,11.3-10.05,12.48-12.65,1.18-.23,1.6-.06.83,1L20.9,271c-2.84,1.24-6.68,2.66-9.7,1.89C4.46,267.4,22,236.36,29.41,231.1c2.37-1.59,11.77-2.72,14-1.12a6.47,6.47,0,0,1,1.06,2.48,55.17,55.17,0,0,1-11.18,12.18c-2,1.72-1.89-.53-.64-1.42,2.18-1.53,5.85-9.22,5.85-10.17A3,3,0,0,0,37.93,232.05Z" transform="translate(-9.69 -166.5)"/><path class="cls-1" d="M40.71,265.39a7,7,0,0,1-2.54,1.19c-4.08-.77-.6-7.75,1.83-8.58a2.8,2.8,0,0,1,.71,0l.71-.17c.65,0,1.06.35,1.36,1.12C43.43,260.25,41.71,264.74,40.71,265.39Z" transform="translate(-9.69 -166.5)"/><path class="cls-1" d="M51.17,271.66c12.12-7.8,11.24-24.83,13.6-34.53a8.32,8.32,0,0,1,5.38-6.44,19.5,19.5,0,0,1,5.15-1.42h0a3.76,3.76,0,0,1,1.13.29c6.5,2.07-1,10.35-6.74,10.82h-.06c-.18,4,.35,8.58.06,13.07-.3,3.19-.18,8.28-1.6,11.65-2.54,4.61-16.2,11.17-18.86,9.46-1.36-.95-3.78-5.56.3-15.79.82-2.07,9.69-4.85,9.69-2.78C56.26,257.83,51.17,270.07,51.17,271.66ZM69.74,239c2.36-1.25,5.85-5.62,3.07-7.16C70.74,233.41,70,235.89,69.74,239Z" transform="translate(-9.69 -166.5)"/><path class="cls-1" d="M79,265.39a7,7,0,0,1-2.54,1.19c-4.08-.77-.59-7.75,1.83-8.58a2.8,2.8,0,0,1,.71,0l.71-.17c.65,0,1.07.35,1.36,1.12C81.74,260.25,80,264.74,79,265.39Z" transform="translate(-9.69 -166.5)"/></svg>