<svg id="Layer_1" data-name="Layer 1" xmlns="http://www.w3.org/2000/svg" viewBox="0 0 494.11 177.02"><defs><style>.cls-1{fill:#1b1c20;}.cls-2{fill:#e7da18;}</style></defs><path class="cls-1" d="M489.7,280.45c-3.16-14.91,7.38-41.74,10.58-46.24l2.78-2.78L502,227.37C499.66,219,483,218,482.87,218a13,13,0,0,0-5.33,1,37,37,0,0,0-6,3.18c-2.64-2.52-7-4-11.77-4-5.43,0-10,2.06-12.71,5.65-.31.38-.6.78-.9,1.17a10.58,10.58,0,0,0-4.33-5.15c-1.53-1-4.33-2.23-10.83-2.23a65.2,65.2,0,0,0-12.54,1.32l-.87-1.23-1.9-.81a14.84,14.84,0,0,0-6-.81h-.33l2.67-4.45-4.58-4A17.1,17.1,0,0,0,396.17,203a17.82,17.82,0,0,0-11.36,4.49l-.74.61-.56.78c-1.63,2.29-3.17,4.76-4.62,7.24l-5.53-2.37-3.58,6A32.15,32.15,0,0,0,360,217.9a13.6,13.6,0,0,0-5.63,1.09,36.53,36.53,0,0,0-5.95,3.17c-2.64-2.52-7-4-11.77-4s-9.08,1.68-11.83,4.62a10.65,10.65,0,0,0-3.13-2.95c-1.53-1-4.33-2.23-10.84-2.23-.58,0-14.29,0-19.83,4.26l-.39.3-.34.34a85.51,85.51,0,0,0-12,15.77c6.49-17.31,14.56-33.27,17.53-37.41l10.06-6.19-11.43-5.89a19.57,19.57,0,0,0-9-2.35,15.18,15.18,0,0,0-12.5,6.48c-3.88,4.73-10.09,15.65-15.27,25.54-5.93.41-16.2,1.69-21.3,5.73a42,42,0,0,0-6.29,6.43l-.88-3.22C227,219,210.37,218,210.21,218a12.85,12.85,0,0,0-5.34,1,36.13,36.13,0,0,0-6,3.17c-2.64-2.52-7-4-11.77-4a17.68,17.68,0,0,0-8.58,2.07c2.84-5.44,5.23-9.05,6.67-10.18l4.46-2.35-.83-5.15c-1.11-6.85-8.93-15.22-14.62-15.89h0c-.6-.06-1.27-.09-2-.09-6.23,0-16,2.49-20.84,4.09-9.45,3.31-21.08,5.06-33.64,5.06-29.07,0-55.34-9.54-57.37-20.84l-1.32-7.36L51.81,169c-11.49,2.42-35.6,12.46-36.78,28.05l-.26,3.44,2.5,2.37C35.83,220.5,76.15,222.4,92.62,222.4a211.26,211.26,0,0,0,30.43-2.09C90.66,259.1,72.88,292.6,69.41,303.37l-1,3.16,1.72,2.83a25.71,25.71,0,0,0,22.28,12.8,22.94,22.94,0,0,0,14-4.51l2.48-2,.26-3.14c0-.47.08-.93.12-1.36l.74-2.87c2.35-9.16,5.79-15.61,9.75-20.31-2.71,11.24-3.72,21.83-.24,27.46l1.31,2.12,2.33.87a23.43,23.43,0,0,0,8.2,1.35,38.73,38.73,0,0,0,21.12-6.65c14.7-2.78,34.41-4.43,53.16-4.43,16.88,0,41,1.28,60.13,7.37,16.21,5.17,24.62,12.38,25,21.45l.27,6.73,6.74.22,1.05,0h0c17.12,0,39.17-13.8,46-25.23,3.91-6.54,2.6-11.45,1.21-13.63a16.25,16.25,0,0,0-1.26-1.7c-4.87-5.51,8.76.78,11.3,2.14.58.31,2.22,1.4,2.22,1.4a24.91,24.91,0,0,0,13.49,3.73c7.64,0,16-3.19,21-7.64.08.1.14.21.22.31l.18.22c1.95,2.27,4.85,3.42,8.61,3.42h0c8.18,0,22.41-5.64,28.86-15l2.05,1.54,3.36-.86c6.14-1.56,11.59-2.95,17.37-6.23a29.81,29.81,0,0,0,3.27,14.54l.9,1.62,1.57,1a24.91,24.91,0,0,0,13.49,3.73c9.19,0,19.51-4.61,23.49-10.49l4.43-6.55L493.65,287C492.93,286.6,490.75,285.38,489.7,280.45Z" transform="translate(-8.94 -167.49)"/><path class="cls-2" d="M22.26,197.63c.76-10,19.54-19.08,31-21.5,4.24,23.62,64.21,34.07,100.55,21.35,5-1.67,15.14-4.09,19.68-3.64,1.21,0,7.42,5.15,8.18,9.85-6.06,3.18-17.72,27.86-25.44,53,7.27-2.57,14.23-6.2,20.29-12.41a4.93,4.93,0,0,1,2.58,2.12c-6.52,9.08-15,12.87-24.54,16.35-4.08,13.78-6.35,26.5-5.6,35.43,61.48-9.08,168.23-11.5,190.64,10.91,4.39,8.17-22.86,28.77-41.64,28.16-1.66-40.13-103.87-39.82-148.54-30.89-6.21,5-17.27,7.72-23.78,5.3-3.18-5.15.31-22.56,7.12-41.49-12.57,5.3-24.23,14.54-29.83,36.34h-.3a33.08,33.08,0,0,0-.76,5.45c-5.75,4.55-18.78,4.85-25.59-6.36,4.09-12.72,27.56-54.81,68.59-99.18-.6.61-1.36,1.06-.9.91C121.75,218.22,45.88,220,22.26,197.63ZM116,268c6.51-2.88,13.18-4.39,19.84-6.06,9.23-24.53,22.41-50.87,32.55-61,1.37-1.36-8.63.15-10,1.06A294,294,0,0,0,116,268Z" transform="translate(-8.94 -167.49)"/><path class="cls-2" d="M180.19,278.79c-5.9,4.09-10.9,5.45-18.62,7.42-7.88-5.9,2.42-38.16,18.62-58,2.88-4.09,11.36-3.18,13.78-.76-2.27,2.27-7.42,11.81-11.36,20.59,7.57-9.69,17.27-19.23,25.14-22.41,3.48-1.66,14.08,2,14.54,3.64-4.09,4.09-24.08,53.3-4.85,64-3.18,4.69-17.26,10.9-27.1,4.69-9.85-17.71,12.87-59.81,20-67.53C195.18,237.3,183.83,261.23,180.19,278.79Z" transform="translate(-8.94 -167.49)"/><path class="cls-2" d="M242.72,298c-3.18-7.11-.9-20.74,1.82-30.74l-5.75,12.42c-7.27,5.3-11.36,6.21-19.54,6.21-10.9-8.48,10.75-47.55,21.66-56,3.63-2.87,14.53-4.39,21.35-4.39,6.81-13.32,13.32-24.38,16.5-28.16,2.88-4.09,7.42-4.7,12.42-2.12-3.94,2.42-46.49,86.76-21.35,98.12C266.65,298,252.57,304.23,242.72,298Zm-7.42-26.19c.46,2,3.94-3.18,8.48-11.06,5.76-9.84,11.06-20,15.75-30.13-3.18-1.21-6.66-1.06-8.33.61C242.72,240.63,233.34,260.62,235.3,271.83Zm55.88-76.62" transform="translate(-8.94 -167.49)"/><path class="cls-2" d="M295.42,227.61c3.18-2.42,18.92-3.94,22.41-1.66,4.24,2.57,2.12,11.5-25,29.37-3.18,14.84-.91,27.41,12.42,31.8-5.3,9.84-24.08,15.45-26.8,12.27C262.25,278.94,281,242,295.42,227.61Zm-1.37,22.87c8.94-7.73,21.2-21.51,9.54-21C298.9,235.49,296.93,241.39,294.05,250.48Z" transform="translate(-8.94 -167.49)"/><path class="cls-2" d="M407.28,231.85c-1.06-.45-5.6-.91-13.93-.91-10.44,22.56-19.68,52.24-4.08,65.72-3.18,4.69-17.27,10.9-27.11,4.69-6.51-20.13,4.69-48.6,16.35-69.8l-5.6.45c1.23-5.64,1.15-5.24,3.44-9.1a21.53,21.53,0,0,0,6.4,1.08,115.25,115.25,0,0,1,6.67-10.9c4.24-3.49,8.63-4.09,13.32,0-1.82,3-3.78,6.66-6.05,10.75,7.87-.46,15.14-.76,16.2-.31C414,225,408.5,231.4,407.28,231.85Z" transform="translate(-8.94 -167.49)"/><path class="cls-2" d="M415.61,227.61c3.18-2.42,18.93-3.94,22.41-1.66,4.24,2.57,2.12,11.5-25,29.37-3.18,14.84-.9,27.41,12.42,31.8-5.3,9.84-24.07,15.45-26.8,12.27C382.45,278.94,401.22,242,415.61,227.61Zm-1.36,22.87c8.93-7.73,21.19-21.51,9.54-21C419.09,235.49,417.12,241.39,414.25,250.48Z" transform="translate(-8.94 -167.49)"/><path class="cls-2" d="M452.86,278.79c-5.91,4.09-10.91,5.45-18.63,7.42-7.87-5.9,2.42-38.16,18.63-58,2.87-4.09,11.35-3.18,13.78-.76-2.28,2.27-7.42,11.81-11.36,20.59,7.57-9.69,17.26-19.23,25.14-22.41,3.48-1.66,14.08,2,14.53,3.64-4.09,4.09-24.07,53.3-4.84,64C486.93,298,472.85,304.23,463,298c-9.84-17.71,12.87-59.81,20-67.53C467.85,237.3,456.49,261.23,452.86,278.79Z" transform="translate(-8.94 -167.49)"/><path class="cls-2" d="M367.45,237.46a94.9,94.9,0,0,0,3.23-9.22c-1.18-1.28-9.95-4.26-13.43-2.6-7.88,3.18-17.57,12.72-25.14,22.41,3.94-8.78,9.09-18.32,11.36-20.59-2.42-2.42-10.9-3.33-13.78.76-16.2,19.83-26.5,52.09-18.62,58,7.72-2,12.71-3.33,18.62-7.42,3.63-17.56,15-41.49,30.13-48.3A63.58,63.58,0,0,0,353,240.68C355.06,241.49,361.49,241.87,367.45,237.46Z" transform="translate(-8.94 -167.49)"/><path class="cls-1" d="M37,232.67a6.22,6.22,0,0,0-4.47-.23c-5.23,6.17-15,25.63-14.29,34,.24,2.06,11.23-10,12.41-12.58,1.17-.24,1.58-.06.82.94L20.09,271.42c-2.82,1.23-6.64,2.65-9.64,1.88-6.7-5.47,10.7-36.34,18.11-41.57,2.35-1.59,11.7-2.7,13.88-1.12a6.4,6.4,0,0,1,1.05,2.47A54.73,54.73,0,0,1,32.38,245.2c-2,1.7-1.88-.53-.64-1.42,2.17-1.52,5.82-9.17,5.82-10.11A3,3,0,0,0,37,232.67Z" transform="translate(-8.94 -167.49)"/><path class="cls-1" d="M39.79,265.83A7,7,0,0,1,37.27,267c-4.06-.76-.59-7.7,1.82-8.53a3.26,3.26,0,0,1,.7,0l.71-.17c.65,0,1.06.35,1.35,1.11C42.5,260.72,40.79,265.19,39.79,265.83Z" transform="translate(-8.94 -167.49)"/><path class="cls-1" d="M50.2,272.07c12-7.76,11.17-24.7,13.52-34.34a8.27,8.27,0,0,1,5.36-6.41,19.1,19.1,0,0,1,5.11-1.41h.06a3.77,3.77,0,0,1,1.12.29c6.46,2.06-1,10.29-6.71,10.76H68.6c-.17,4,.36,8.53.06,13-.29,3.17-.17,8.23-1.58,11.58C64.55,270.13,51,276.65,48.32,275c-1.35-.94-3.76-5.53.29-15.7.83-2.06,9.65-4.82,9.65-2.76C55.26,258.31,50.2,270.48,50.2,272.07Zm18.46-32.52c2.35-1.23,5.82-5.58,3.06-7.11C69.66,234,68.9,236.49,68.66,239.55Z" transform="translate(-8.94 -167.49)"/><path class="cls-1" d="M77.9,265.83A7.12,7.12,0,0,1,75.37,267c-4.06-.76-.59-7.7,1.82-8.53a3.36,3.36,0,0,1,.71,0l.7-.17c.65,0,1.06.35,1.35,1.11C80.6,260.72,78.9,265.19,77.9,265.83Z" transform="translate(-8.94 -167.49)"/></svg>